# xmcd
#
# Track frame offsets:
#	150
#	12205
#	25348
#	36743
#	48430
#	59733
#	70260
#	86525
#	96653
#	108945
#	123378
#	133253
#	143400
#	154245
#	165100
#	177163
#	186668
#	196653
#	208795
#	219158
#	231595
#	240623
#	250408
#	261875
#	271798
#	282590
#	292138
#	301930
#	312845
#	323265
#
# Disc length: 4456 seconds
#
# Revision: 0
# Processed by: cddbd v1.5.2PL0 Copyright (c) Steve Scherf et al.
# Submitted via: VUPlayer 2.49
#
DISCID=c311661e
DTITLE=Various Artist - Girls, Girls, Girls - Volume 1
DYEAR=1990
DGENRE=Oldies
TTITLE0=Brenda Lee - I'm Sorry
TTITLE1=Lucille Starr - The French Song
TTITLE2=Joannie Sommers - Johnny Get Angry
TTITLE3=Lesley Gore - Maybe I Know
TTITLE4=Eydie Gorme - Blame it On the Bossa Nova
TTITLE5=Linda Scott - I've Told Every Little Star
TTITLE6=Rosie and the Originals - Angel Baby
TTITLE7=Bobettes - Mr. Lee
TTITLE8=Jodie Sands - With All My Heart
TTITLE9=Kathy Young and the innocents - A Thousand Stars
TTITLE10=Miss Toni Fisher - The Big Hurt =Fasing=
TTITLE11=Damita Jo - I'll Save the Last Dance for You
TTITLE12=Connie Stevens - A Little Kiss is A Kiss, is A Kiss
TTITLE13=Sarah Vaughan - Broken Hearted Melody
TTITLE14=The Shirelles - Soldier Boy
TTITLE15=Ruth Brown - Lucky Lips
TTITLE16=The Pixies Three - 442 Glenwood Avenue
TTITLE17=Connie Francis - Someone Else's Boy =Nederlands=
TTITLE18=Marcie Blane - Bobby's Girl
TTITLE19=The Dixie Cups - Chapel of Love
TTITLE20=The Angels - Wow Wow Wee
TTITLE21=Wanda Jackson - Let's Have A Party
TTITLE22=The Ronettes - Baby I Love You
TTITLE23=Robin Ward - Moon River
TTITLE24=Annette Funicello - Pineapple Princess
TTITLE25=The Chiffons - One Fine Day
TTITLE26=Shelley Fabares - Johnny Angel
TTITLE27=The Crystals - He's A Rebel
TTITLE28=Little Eva - The Loco-Motion
TTITLE29=Little Peggy March - I Will Follow Him
EXTD=
EXTT0=
EXTT1=
EXTT2=
EXTT3=
EXTT4=
EXTT5=
EXTT6=
EXTT7=
EXTT8=
EXTT9=
EXTT10=
EXTT11=
EXTT12=
EXTT13=
EXTT14=
EXTT15=
EXTT16=
EXTT17=
EXTT18=
EXTT19=
EXTT20=
EXTT21=
EXTT22=
EXTT23=
EXTT24=
EXTT25=
EXTT26=
EXTT27=
EXTT28=
EXTT29=
PLAYORDER=
